<svg width="512" height="512" fill="none" xmlns="http://www.w3.org/2000/svg"><rect width="512" height="512" rx="65" fill="#000"/><path d="M114.59 206.617c6.38 0 12.272 1.432 17.676 4.297 5.403 2.865 10.156 6.966 14.257 12.305v-7.813c0-2.409.456-4.101 1.368-5.078.976-1.042 2.571-1.562 4.785-1.562h15.527c2.214 0 3.776.52 4.688 1.562.976.977 1.464 2.669 1.464 5.078 0 2.409-.488 4.134-1.464 5.176-.912.977-2.474 1.465-4.688 1.465h-8.008v79.883c0 7.747-1.66 14.388-4.98 19.922-3.255 5.599-8.008 9.863-14.258 12.793-6.25 2.929-13.769 4.394-22.559 4.394-6.25 0-12.565-.553-18.945-1.66-6.38-1.042-12.337-2.572-17.871-4.59-2.539-.911-3.809-2.637-3.809-5.176 0-1.041.26-2.343.782-3.906 1.172-3.581 3.027-5.371 5.566-5.371.716 0 1.432.13 2.148.391 5.079 1.822 10.417 3.255 16.016 4.296 5.599 1.042 10.97 1.563 16.113 1.563 8.985 0 15.756-2.148 20.313-6.445 4.557-4.232 6.836-10.059 6.836-17.481v-19.629c-8.073 10.157-18.392 15.235-30.957 15.235-8.073 0-15.3-1.791-21.68-5.371-6.38-3.646-11.393-8.855-15.039-15.625-3.646-6.771-5.469-14.714-5.469-23.829 0-9.114 1.823-17.057 5.47-23.828 3.645-6.771 8.658-11.946 15.038-15.527 6.38-3.646 13.607-5.469 21.68-5.469zm.976 14.453c-5.794 0-10.774 1.302-14.941 3.907-4.167 2.539-7.357 6.119-9.57 10.742-2.149 4.557-3.223 9.798-3.223 15.722 0 5.925 1.074 11.198 3.223 15.821 2.213 4.557 5.403 8.138 9.57 10.742 4.167 2.539 9.147 3.808 14.941 3.808 5.795 0 10.938-1.204 15.43-3.613 4.557-2.409 8.106-5.892 10.645-10.449 2.604-4.622 3.906-10.059 3.906-16.309 0-6.25-1.302-11.653-3.906-16.211-2.539-4.622-6.088-8.138-10.645-10.546-4.492-2.409-9.635-3.614-15.43-3.614zm237.879-58.203c2.604 0 4.753.488 6.446 1.465 1.692.977 2.539 2.214 2.539 3.711 0 .521-.098 1.074-.293 1.66l-65.625 160.449c-.456 1.042-1.27 1.888-2.442 2.539-1.106.651-2.409.977-3.906.977-2.604 0-4.753-.488-6.445-1.465-1.693-.976-2.539-2.213-2.539-3.711 0-.521.097-1.074.293-1.66l65.625-160.449c.455-1.042 1.237-1.888 2.343-2.539 1.172-.651 2.507-.977 4.004-.977zm69.922 0c2.604 0 4.753.488 6.445 1.465 1.693.977 2.54 2.214 2.54 3.711 0 .521-.098 1.074-.293 1.66l-65.625 160.449c-.456 1.042-1.27 1.888-2.442 2.539-1.107.651-2.409.977-3.906.977-2.604 0-4.753-.488-6.445-1.465-1.693-.976-2.539-2.213-2.539-3.711 0-.521.097-1.074.293-1.66l65.625-160.449c.455-1.042 1.237-1.888 2.343-2.539 1.172-.651 2.507-.977 4.004-.977z" fill="#fff"/><path d="M239.883 238.062c-4.688 0-8.073-.455-10.156-1.367-2.019-.976-3.028-2.571-3.028-4.785v-17.969c0-2.213 1.009-3.776 3.028-4.687 2.083-.977 5.468-1.465 10.156-1.465 4.687 0 8.04.488 10.058 1.465 2.084.911 3.125 2.474 3.125 4.687v17.969c0 2.214-1.041 3.809-3.125 4.785-2.018.912-5.371 1.367-10.058 1.367zm0 61.915c-4.688 0-8.073-.456-10.156-1.368-2.019-.976-3.028-2.571-3.028-4.785v-17.969c0-2.213 1.009-3.776 3.028-4.687 2.083-.977 5.468-1.465 10.156-1.465 4.687 0 8.04.488 10.058 1.465 2.084.911 3.125 2.474 3.125 4.687v17.969c0 2.214-1.041 3.809-3.125 4.785-2.018.912-5.371 1.368-10.058 1.368z" fill="#DF3636"/></svg>
